<mxfile host="app.diagrams.net" modified="2021-09-13T01:41:32.628Z" agent="5.0 (Windows NT 10.0; Win64; x64) AppleWebKit/537.36 (KHTML, like Gecko) Chrome/93.0.4577.63 Safari/537.36 Edg/93.0.961.38" etag="btNhuXfGZxGRzdIa-sZH" version="15.1.2" type="github">
  <diagram id="bvC-iWiw-zPFArvYQ_TB" name="Page-1">
    <mxGraphModel dx="1420" dy="1043" grid="0" gridSize="10" guides="1" tooltips="1" connect="1" arrows="1" fold="1" page="0" pageScale="1" pageWidth="827" pageHeight="1169" math="0" shadow="0">
      <root>
        <mxCell id="0" />
        <mxCell id="1" parent="0" />
        <mxCell id="5iqYb25xgS31BvV8d8LG-1" style="edgeStyle=orthogonalEdgeStyle;rounded=0;orthogonalLoop=1;jettySize=auto;html=1;exitX=1;exitY=0.5;exitDx=0;exitDy=0;exitPerimeter=0;" edge="1" parent="1" source="5iqYb25xgS31BvV8d8LG-2" target="5iqYb25xgS31BvV8d8LG-17">
          <mxGeometry relative="1" as="geometry" />
        </mxCell>
        <mxCell id="5iqYb25xgS31BvV8d8LG-2" value="开始" style="strokeWidth=2;html=1;shape=mxgraph.flowchart.terminator;whiteSpace=wrap;" vertex="1" parent="1">
          <mxGeometry x="161" y="-10" width="70" height="40" as="geometry" />
        </mxCell>
        <mxCell id="5iqYb25xgS31BvV8d8LG-33" style="edgeStyle=orthogonalEdgeStyle;rounded=0;orthogonalLoop=1;jettySize=auto;html=1;exitX=0.5;exitY=1;exitDx=0;exitDy=0;entryX=0.5;entryY=0;entryDx=0;entryDy=0;" edge="1" parent="1" source="5iqYb25xgS31BvV8d8LG-4" target="5iqYb25xgS31BvV8d8LG-31">
          <mxGeometry relative="1" as="geometry" />
        </mxCell>
        <mxCell id="5iqYb25xgS31BvV8d8LG-4" value="设置权限" style="rounded=1;whiteSpace=wrap;html=1;absoluteArcSize=1;arcSize=14;strokeWidth=2;" vertex="1" parent="1">
          <mxGeometry x="278.75" y="347" width="162.5" height="50" as="geometry" />
        </mxCell>
        <mxCell id="5iqYb25xgS31BvV8d8LG-7" value="IT PM" style="rounded=0;whiteSpace=wrap;html=1;" vertex="1" parent="1">
          <mxGeometry x="280" y="-80" width="160" height="40" as="geometry" />
        </mxCell>
        <mxCell id="5iqYb25xgS31BvV8d8LG-8" value="Devops团队" style="rounded=0;whiteSpace=wrap;html=1;" vertex="1" parent="1">
          <mxGeometry x="521.5" y="-80" width="160" height="40" as="geometry" />
        </mxCell>
        <mxCell id="5iqYb25xgS31BvV8d8LG-30" style="edgeStyle=orthogonalEdgeStyle;rounded=0;orthogonalLoop=1;jettySize=auto;html=1;exitX=0.5;exitY=1;exitDx=0;exitDy=0;entryX=0.5;entryY=0;entryDx=0;entryDy=0;" edge="1" parent="1" source="5iqYb25xgS31BvV8d8LG-10" target="5iqYb25xgS31BvV8d8LG-4">
          <mxGeometry relative="1" as="geometry" />
        </mxCell>
        <mxCell id="5iqYb25xgS31BvV8d8LG-10" value="Devops平台项目页面邀请团队成员包括，产品经理，供应商PM和团队成员" style="rounded=1;whiteSpace=wrap;html=1;absoluteArcSize=1;arcSize=14;strokeWidth=2;" vertex="1" parent="1">
          <mxGeometry x="277.5" y="257" width="165" height="50" as="geometry" />
        </mxCell>
        <mxCell id="5iqYb25xgS31BvV8d8LG-29" style="edgeStyle=orthogonalEdgeStyle;rounded=0;orthogonalLoop=1;jettySize=auto;html=1;exitX=0.5;exitY=1;exitDx=0;exitDy=0;entryX=0.5;entryY=0;entryDx=0;entryDy=0;" edge="1" parent="1" source="5iqYb25xgS31BvV8d8LG-13" target="5iqYb25xgS31BvV8d8LG-10">
          <mxGeometry relative="1" as="geometry" />
        </mxCell>
        <mxCell id="5iqYb25xgS31BvV8d8LG-13" value="&lt;div style=&quot;text-align: justify&quot;&gt;&lt;span&gt;为项目成员申请开通O365权限&lt;/span&gt;&lt;/div&gt;" style="rounded=1;whiteSpace=wrap;html=1;absoluteArcSize=1;arcSize=14;strokeWidth=2;" vertex="1" parent="1">
          <mxGeometry x="275" y="165" width="170" height="55" as="geometry" />
        </mxCell>
        <mxCell id="5iqYb25xgS31BvV8d8LG-19" style="edgeStyle=orthogonalEdgeStyle;rounded=0;orthogonalLoop=1;jettySize=auto;html=1;exitX=1;exitY=0.5;exitDx=0;exitDy=0;entryX=0;entryY=0.5;entryDx=0;entryDy=0;" edge="1" parent="1" source="5iqYb25xgS31BvV8d8LG-17" target="5iqYb25xgS31BvV8d8LG-18">
          <mxGeometry relative="1" as="geometry" />
        </mxCell>
        <mxCell id="5iqYb25xgS31BvV8d8LG-17" value="向Devops团队提供项目基本信息，和IT PM个人基本信息，等待项目被创建并被邀请加入项目" style="rounded=1;whiteSpace=wrap;html=1;absoluteArcSize=1;arcSize=14;strokeWidth=2;" vertex="1" parent="1">
          <mxGeometry x="281.25" y="-23" width="157.5" height="66" as="geometry" />
        </mxCell>
        <mxCell id="5iqYb25xgS31BvV8d8LG-23" style="edgeStyle=orthogonalEdgeStyle;rounded=0;orthogonalLoop=1;jettySize=auto;html=1;exitX=0.5;exitY=1;exitDx=0;exitDy=0;entryX=0.5;entryY=0;entryDx=0;entryDy=0;" edge="1" parent="1" source="5iqYb25xgS31BvV8d8LG-18" target="5iqYb25xgS31BvV8d8LG-20">
          <mxGeometry relative="1" as="geometry" />
        </mxCell>
        <mxCell id="5iqYb25xgS31BvV8d8LG-18" value="获得申请需求，创建项目，邀请IT PM加入项目" style="rounded=1;whiteSpace=wrap;html=1;absoluteArcSize=1;arcSize=14;strokeWidth=2;" vertex="1" parent="1">
          <mxGeometry x="524" y="-23" width="157.5" height="66" as="geometry" />
        </mxCell>
        <mxCell id="5iqYb25xgS31BvV8d8LG-24" style="edgeStyle=orthogonalEdgeStyle;rounded=0;orthogonalLoop=1;jettySize=auto;html=1;exitX=0.5;exitY=1;exitDx=0;exitDy=0;entryX=0.5;entryY=0;entryDx=0;entryDy=0;" edge="1" parent="1" source="5iqYb25xgS31BvV8d8LG-20" target="5iqYb25xgS31BvV8d8LG-21">
          <mxGeometry relative="1" as="geometry" />
        </mxCell>
        <mxCell id="5iqYb25xgS31BvV8d8LG-20" value="&lt;div style=&quot;text-align: justify&quot;&gt;&lt;span&gt;Teams中创建团队，邀请IT PM加入团队，关联Azure devops项目；同时SharePoint团队空间中创建好标准目录模板&lt;/span&gt;&lt;/div&gt;" style="rounded=1;whiteSpace=wrap;html=1;absoluteArcSize=1;arcSize=14;strokeWidth=2;" vertex="1" parent="1">
          <mxGeometry x="524" y="62" width="157.5" height="80" as="geometry" />
        </mxCell>
        <mxCell id="5iqYb25xgS31BvV8d8LG-27" style="edgeStyle=orthogonalEdgeStyle;rounded=0;orthogonalLoop=1;jettySize=auto;html=1;exitX=0;exitY=0.5;exitDx=0;exitDy=0;entryX=1;entryY=0.5;entryDx=0;entryDy=0;" edge="1" parent="1" source="5iqYb25xgS31BvV8d8LG-21" target="5iqYb25xgS31BvV8d8LG-13">
          <mxGeometry relative="1" as="geometry" />
        </mxCell>
        <mxCell id="5iqYb25xgS31BvV8d8LG-21" value="&lt;div style=&quot;text-align: justify&quot;&gt;通知IT PM项目准备就绪&lt;/div&gt;" style="rounded=1;whiteSpace=wrap;html=1;absoluteArcSize=1;arcSize=14;strokeWidth=2;" vertex="1" parent="1">
          <mxGeometry x="522.75" y="165" width="157.5" height="55" as="geometry" />
        </mxCell>
        <mxCell id="5iqYb25xgS31BvV8d8LG-35" style="edgeStyle=orthogonalEdgeStyle;rounded=0;orthogonalLoop=1;jettySize=auto;html=1;exitX=0.5;exitY=1;exitDx=0;exitDy=0;entryX=0.5;entryY=0;entryDx=0;entryDy=0;entryPerimeter=0;" edge="1" parent="1" source="5iqYb25xgS31BvV8d8LG-31" target="5iqYb25xgS31BvV8d8LG-34">
          <mxGeometry relative="1" as="geometry" />
        </mxCell>
        <mxCell id="5iqYb25xgS31BvV8d8LG-31" value="Teams团队页面，邀请项目团队成员，包括产品经理，供应商PM以及供应商团队成员" style="rounded=1;whiteSpace=wrap;html=1;absoluteArcSize=1;arcSize=14;strokeWidth=2;" vertex="1" parent="1">
          <mxGeometry x="278.75" y="440" width="162.5" height="50" as="geometry" />
        </mxCell>
        <mxCell id="5iqYb25xgS31BvV8d8LG-34" value="OnBoard流程结束" style="strokeWidth=2;html=1;shape=mxgraph.flowchart.terminator;whiteSpace=wrap;" vertex="1" parent="1">
          <mxGeometry x="302.5" y="520" width="115" height="50" as="geometry" />
        </mxCell>
      </root>
    </mxGraphModel>
  </diagram>
</mxfile>
